<svg enable-background="new 0 0 340.157 218.268" height="109" viewBox="0 0 191.99999 109" width="192" xmlns="http://www.w3.org/2000/svg" xmlns:xlink="http://www.w3.org/1999/xlink"><clipPath id="a"><path d="m0 0h340.15701v218.26801h-340.15701z" height="100%" width="100%"/></clipPath><g fill="#000000" stroke-width="1.47935" transform="matrix(.67733301 0 0 .67461483 -19.199882 -19.123522)"><path clip-path="url(#a)" d="m181.243 140.749c-1.351.656-3.103.912-5.621.912-7.702 0-12.155-4.27-12.155-12.811 0-8.943 4.38-13.469 12.52-13.469 2.445 0 4.051.401 5.219.766v3.104c-1.605-.584-3.723-.804-4.891-.804-6.607 0-9.344 3.212-9.344 10.073 0 6.68 3.176 10.075 9.38 10.075 1.534 0 3.065-.219 4.892-1.022z"/><path clip-path="url(#a)" d="m199.654 141.296h-2.701v-2.665h-.072c-1.022 1.568-2.957 2.957-6.097 2.957-3.759 0-6.131-2.08-6.131-5.731 0-3.758 2.556-5.657 8.358-5.657 1.898 0 2.957.184 3.577.22v-1.204c0-2.849-1.388-4.053-4.708-4.053-1.789 0-4.053.512-5.512 1.241v-2.81c1.532-.694 3.723-1.204 5.841-1.204 5.803 0 7.444 2.225 7.444 7.591v11.315zm-3.065-8.505c-.657-.071-1.314-.219-3.321-.219-4.198 0-5.329 1.241-5.329 3.031 0 1.751 1.131 3.21 3.65 3.21 3.283 0 5-1.86 5-4.781z"/><path clip-path="url(#a)" d="m208.157 141.295h-3.066v-18.614h2.848v3.029h.073c.984-2.227 2.591-3.32 4.963-3.32.475 0 1.533.107 2.154.255v2.92c-.693-.255-1.314-.329-1.898-.329-3.941 0-5.073 2.701-5.073 7.591v8.468z"/><path clip-path="url(#a)" d="m218.84399 113.921h3.066v27.375h-3.066z"/><path clip-path="url(#a)" d="m253.871 118.812-13.65 19.418h13.87v3.065h-17.629v-3.065l13.686-19.418h-13.249v-3.066h16.972z"/><path clip-path="url(#a)" d="m271.679 140.346c-.986.695-2.956 1.242-5.511 1.242-6.57 0-9.637-3.577-9.637-9.672 0-5.732 3.141-9.527 8.395-9.527 5.986 0 8.176 4.124 8.176 9.38v.986h-13.358c.329 4.051 2.336 6.058 6.68 6.058 2.592 0 4.052-.584 5.256-1.313v2.846zm-1.862-10.146c.073-2.848-1.497-5.036-4.745-5.036-3.139 0-4.927 1.752-5.293 5.036z"/><path clip-path="url(#a)" d="m279.027 118.667c-1.168 0-1.972-.841-1.972-2.009s.804-1.971 1.972-1.971 2.007.803 2.007 1.971-.839 2.009-2.007 2.009m1.533 22.629h-3.065v-18.615h3.065z"/><path clip-path="url(#a)" d="m285.126 137.537c2.007 1.131 3.686 1.276 4.854 1.276 2.117 0 3.358-.912 3.358-2.846 0-3.796-8.433-2.228-8.433-8.359 0-3.102 2.336-5.218 6.57-5.218 2.045 0 3.65.401 4.162.584v2.919c-1.06-.438-2.556-.73-4.162-.73-1.824 0-3.285.584-3.285 2.189 0 3.76 8.433 1.863 8.433 8.652 0 3.869-2.812 5.584-6.752 5.584-2.081 0-3.541-.476-4.745-1.023z"/><path clip-path="url(#a)" d="m300.313 137.537c2.008 1.131 3.688 1.276 4.854 1.276 2.117 0 3.358-.912 3.358-2.846 0-3.796-8.432-2.228-8.432-8.359 0-3.102 2.336-5.218 6.571-5.218 2.044 0 3.648.401 4.159.584v2.919c-1.058-.438-2.555-.73-4.159-.73-1.825 0-3.286.584-3.286 2.189 0 3.76 8.433 1.863 8.433 8.652 0 3.869-2.811 5.584-6.753 5.584-2.081 0-3.54-.476-4.746-1.023v-3.028z"/><path clip-path="url(#a)" d="m164.962 177.621c1.168.805 3.541 1.789 6.168 1.789 3.396 0 5.038-1.532 5.038-4.196 0-2.957-1.424-3.761-4.928-5.111l-.876-.328c-3.688-1.424-5.511-3.139-5.511-7.045 0-4.125 3.103-6.533 8.176-6.533 2.663 0 4.416.584 5.182 1.06v3.138c-1.861-.876-3.832-1.13-5.401-1.13-2.848 0-4.453 1.168-4.453 3.466 0 2.008.803 3.176 4.818 4.709l.948.365c4.453 1.715 5.548 3.869 5.548 7.189 0 4.818-3.356 7.482-8.248 7.482-2.701 0-4.746-.62-6.461-1.605z"/><path clip-path="url(#a)" d="m193.342 166.27h-5.146v10.037c0 2.264.656 3.321 3.028 3.321.73 0 1.497-.146 2.191-.51v2.7c-.768.401-1.679.585-2.738.585-3.796 0-5.548-1.789-5.548-5.403v-10.73h-3.403v-2.773h3.403v-3.943l3.066-1.095v5.038h5.146v2.773z"/><path clip-path="url(#a)" d="m199.443 159.481c-1.168 0-1.972-.839-1.972-2.007s.804-1.971 1.972-1.971c1.167 0 2.007.803 2.007 1.971s-.84 2.007-2.007 2.007m1.533 22.63h-3.065v-18.615h3.065z"/><path clip-path="url(#a)" d="m216.281 166.27h-4.471v15.842h-3.065v-15.842h-3.688v-2.773h3.688v-2.52c0-3.904 1.277-6.532 5.767-6.532.729 0 1.387.071 2.336.219v2.772c-.293-.071-.949-.219-1.716-.219-2.591 0-3.321.84-3.321 4.417v1.862h4.471v2.774z"/><path clip-path="url(#a)" d="m231.087 166.27h-5.146v10.037c0 2.264.655 3.321 3.028 3.321.73 0 1.496-.146 2.19-.51v2.7c-.767.401-1.679.585-2.737.585-3.796 0-5.548-1.789-5.548-5.403v-10.73h-3.403v-2.773h3.403v-3.943l3.066-1.095v5.038h5.146v2.773z"/><path clip-path="url(#a)" d="m234.888 163.496h3.066v9.637c0 4.964 1.021 6.497 4.562 6.497 3.796 0 5.402-2.885 5.402-7.52v-8.614h3.065v18.615h-3.065v-2.665h-.072c-1.388 2.008-3.578 2.957-5.987 2.957-4.817 0-6.971-2.336-6.971-7.847z"/><path clip-path="url(#a)" d="m271.65 182.112h-3.066v-9.638c0-4.964-1.022-6.497-4.563-6.497-3.797 0-5.401 2.885-5.401 7.521v8.614h-3.067v-18.615h3.067v2.664h.072c1.387-2.007 3.576-2.956 5.985-2.956 4.818 0 6.973 2.336 6.973 7.847z"/><path clip-path="url(#a)" d="m289.586 163.496h2.92v17.776c0 5.984-3.212 8.649-9.052 8.649-2.299 0-5.109-.474-6.642-1.132v-3.029c1.131.62 3.32 1.388 6.313 1.388 4.489 0 6.315-1.972 6.315-5.731v-2.445h-.074c-1.241 2.044-4.051 3.141-6.131 3.141-5.621 0-8.067-3.433-8.067-9.162 0-6.023 2.373-9.746 8.322-9.746 2.408 0 4.964 1.059 6.023 2.957h.071v-2.666zm-11.132 9.27c0 4.161 1.788 6.57 5.292 6.57 3.688 0 5.695-2.664 5.695-6.497 0-4.124-1.789-6.861-5.621-6.861-3.578 0-5.366 2.045-5.366 6.788"/><path clip-path="url(#a)" d="m249.5 32.023c.049 1.221-.272 2.428-.592 3.611-.386 1.421-.773 2.844-1.158 4.265-.729 2.694-1.632 5.628-3.994 7.133-1.346.852-3.192 1.31-3.714 2.807-.282.806-.065 1.69.15 2.517.56 2.136 1.531 4.436 1.307 6.672-.218 2.205-1.267 4.257-2.411 6.125-1.016 1.652-2.123 3.253-3.313 4.786-.896 1.154-1.853 2.282-3.019 3.17-.756.579-1.588 1.048-2.419 1.514-1.607.906-3.218 1.811-4.837 2.702-2.075 1.14-4.221 2.271-6.567 2.606-1.308.186-2.663.055-3.962.263-1.357.22-2.579.699-3.987.579-.562-.049-1.119-.176-1.683-.151-.3.017-.598.075-.899.08-.249.002-.498-.031-.747-.067-1.292-.186-2.587-.473-3.748-1.067-1.16-.596-2.182-1.531-2.672-2.734-.092-.226-.165-.469-.146-.712.027-.381.28-.713.552-.986.416-.418.911-.768 1.457-.996.589-.244 1.223-.35 1.848-.474 2.373-.478 4.588-1.371 6.872-2.134.625-.21 1.325-.491 1.885-.84.563-.355 1.05-1.045 1.468-1.55.941-1.144 1.737-2.405 2.355-3.745.249-.543.476-1.121.442-1.715-.022-.409-.169-.802-.336-1.175-.723-1.614-1.905-3.019-3.378-4.012-.436-.293-.905-.553-1.419-.678-1.185-.291-2.526.159-3.61-.4-.274-.141-.521-.342-.817-.425-.36-.098-.744-.009-1.107.081-1.501.37-3.002.739-4.453 1.267-2.104.766-4.078 1.856-6.158 2.687-1.277.513-2.598.928-3.853 1.49-.871.387-1.708.845-2.588 1.216-.956.409-1.955.714-2.92 1.11-1.572.648-3.058 1.508-4.563 2.288-.795.412-1.59.825-2.375 1.249-1.79.963-3.547 1.987-5.321 2.976-4.503 2.506-9.091 4.847-13.665 7.221-1.137.59-2.258 1.258-3.29 2.004-1.123.806-2.421 1.441-3.618 2.138-2.479 1.446-4.963 2.897-7.445 4.343-.424.246-.848.498-1.21.829-.162.148-.315.314-.512.403-.137.059-.29.08-.435.116-.365.098-.69.308-1.005.514-.197.13-.375.252-.546.372-.396.423-.801.834-1.214 1.151-.82.631-1.452 1.263-2.132 2.052-1.537 1.784-3.076 3.565-4.613 5.348-.689.796-1.379 1.595-2.162 2.295-.816.729-1.727 1.345-2.554 2.058-2.305 1.983-3.908 4.662-6.165 6.698-.963.868-2.035 1.618-2.922 2.56-.401.423-.759.887-1.139 1.33-1.203 1.404-2.691 2.566-4 3.871-1.315 1.31-2.627 2.637-4.152 3.708-.988.695-2.059 1.276-2.967 2.072-.714.625-1.316 1.372-2.048 1.977-.676.562-1.465.883-2.166 1.37-.896.622-1.683 1.517-2.493 2.248-1.648 1.493-3.298 2.988-4.948 4.481-.723.654-1.446 1.31-2.192 1.943-.837.713-1.698 1.4-2.567 2.076-9.133 7.131-18.924 13.429-29.214 18.79-1.007.526-2.04 1.049-3.161 1.223-1.098.17-2.214-.002-3.311-.172-1.839-.288-3.885-.697-4.954-2.213-.992-1.404-.779-3.384.066-4.883 1.162-2.064 3.338-3.396 4.746-5.308.423-.577.805-1.187 1.267-1.732.468-.556 1.017-1.04 1.56-1.523.811-.713 1.618-1.428 2.475-2.08.962-.73 1.979-1.381 2.942-2.111.787-.601 1.368-1.454 2.213-1.966.838-.51 1.676-1.068 2.257-1.866.284-.391.513-.837.912-1.107.396-.262.896-.307 1.354-.449.905-.285 1.624-.967 2.444-1.45.711-.42 1.51-.697 2.17-1.197.543-.41.976-.951 1.517-1.36.714-.539 1.612-.829 2.248-1.471.732-.747 1.59-1.338 2.368-2.041.486-.443 1.073-.763 1.682-1.02.878-.37 1.677-.86 2.324-1.573.344-.377.744-.657 1.207-.878.367-.174.783-.326 1.056-.611 1.81-1.844 4.217-2.916 6.105-4.656.58-.531 1.189-1.025 1.725-1.593 1.259-1.332 2.93-2.145 4.23-3.421.223-.221.487-.4.696-.635.449-.498.979-.816 1.632-1.049.979-.349 1.886-.903 2.534-1.735.729-.927 1.727-1.438 2.735-1.934.854-.426 1.663-.884 2.311-1.58.286-.305.653-.491.984-.727 1.477-1.053 2.945-2.105 4.337-3.293 1.045-.891 2.297-1.627 3.59-2.193 1.354-.602 2.468-1.446 3.319-2.678.658-.948 1.537-1.726 2.048-2.789.083-.186.287-.332.465-.453 1.537-1.071 2.542-2.659 3.857-3.944.662-.652 1.005-1.568 1.62-2.29.85-.994 1.738-1.968 2.355-3.147.106-.206.357-.34.519-.53.407-.476.447-1.115.747-1.644.503-.886 1.483-1.314 1.995-2.168.278-.463.507-.978.754-1.464.707-1.412 1.639-2.727 1.934-4.328.101-.546.37-1.045.701-1.514.743-1.039 1.276-2.15 1.552-3.35.127-.547.203-1.107.221-1.688.035-1.452-.73-2.088-2.149-1.764-.64.142-1.232.084-1.856.07-1.211-.026-2.421-.18-3.637-.013-.603.079-1.249-.038-1.856-.115-.581-.069-1.121-.019-1.675.043-.421.051-.814.036-1.152-.254-.121-.107-.249-.236-.409-.208-1.099.184-1.555-.802-2.309-1.243-.148-.077-.246-.289-.3-.464-.289-.855-.629-1.705-.808-2.583-.229-1.109.032-2.155.699-3.102 1.303-1.83 2.984-3.077 5.244-3.486.632-.119 1.13-.535 1.674-.844 1.826-1.031 3.623-2.114 5.473-3.088 1.215-.645 2.487-1.191 3.806-1.611.627-.202 1.227-.482 1.836-.723.4-.157.6-.485.627-.865.018-.333-.24-.596-.538-.713-.249-.096-.5-.214-.707-.384-.22-.178-.281-.434-.465-.619-.427-.439-1.452-.552-2.026-.556-.589-.006-1.17.116-1.747.232-2.174.447-4.354.871-6.541 1.267-.869.159-1.839.461-2.724.412-.805-.048-1.706-.079-2.544.037-.839.118-1.717.623-2.573.407-.654-.166-1.35-.357-1.808-.849-.476-.517-.596-1.262-.69-1.957-.075-.552-.068-1.26.445-1.478.192-.084.416-.07.614-.142.36-.134.558-.528.896-.717.447-.244 1.041-.076 1.485-.322.301-.168.474-.488.705-.742.31-.335.723-.556 1.142-.741 1.87-.831 3.946-1.14 5.802-1.997.597-.276 1.127-.602 1.787-.691 1.117-.148 1.84-.437 2.825-.927.536-.265 1.158-.216 1.741-.24.998-.04 1.972-.352 2.973-.359.659-.003 1.294.114 1.951.009.667-.103 1.312-.32 1.987-.385.703-.07 1.444.023 2.091-.259.536-.232 1.003-.547 1.612-.518 1.139.052 2.062.092 3.198-.02 1.052-.107 2.122-.079 3.164.099 2.062.361 4.055 1.368 5.171 3.185.129.212.247.433.349.661.192.427.333.876.411 1.336.107.615.103 1.273-.186 1.826-.183.352-.472.634-.716.948-.261.339-.474.714-.729 1.06-.639.869-1.544 1.549-2.036 2.511-.293.568-.42 1.205-.62 1.815-.458 1.391-1.77 2.5-2.914 3.349-1.264.94-2.648 1.706-3.928 2.622-1.192.851-2.287 1.832-3.32 2.87-.167.171-.334.345-.437.559-.102.211-.133.471-.019.678.09.164.255.274.418.355.62.307 1.343.339 2.03.257.687-.083 1.354-.27 2.037-.384 1.808-.301 3.655-.068 5.473.167 1.005.128 1.781.392 2.535 1.077.531.481.972.959 1.191 1.658.187.596.221 1.227.205 1.852-.051 1.957-.665 3.836-1.541 5.575-.898 1.785-2.003 3.513-3.118 5.169-.754 1.12-1.574 2.193-2.457 3.219-.802.927-1.657 1.811-2.51 2.692.14-.064.273-.14.414-.201.84-.367 1.67-.759 2.486-1.179.776-.396 1.697-.776 2.379-1.319.845-.674 1.81-1.148 2.742-1.684 1.039-.597 2.08-1.196 3.122-1.798.703-.405 1.402-.808 2.106-1.214.966-.559 1.937-1.115 2.903-1.674 1.412-.813 2.826-1.628 4.176-2.538.571-.382 1.146-.789 1.805-.98.277-.08.568-.121.832-.239.31-.141.562-.38.833-.586 1.022-.772 2.342-1.063 3.402-1.781.896-.607 1.623-1.525 2.668-1.815.503-.138.985-.13 1.443-.385.47-.264.992-.447 1.529-.525.281-.042.572-.057.84-.157.327-.123.593-.366.855-.598 1.127-.972 2.427-1.751 3.82-2.29.921-.354 1.888-.61 2.753-1.084.846-.466 1.541-1.136 2.371-1.613.825-.475 1.741-.757 2.629-1.083 1.178-.431 2.328-.941 3.429-1.536.491-.269.971-.551 1.435-.859.349-.229.688-.472 1.039-.697 2.272-1.459 4.948-2.159 7.308-3.463.689-.382 1.331-.838 1.998-1.258.861-.543 1.762-1.024 2.66-1.504.604-.324 1.208-.711 1.835-.974.658-.278 1.35-.484 2.013-.746 1.351-.533 2.674-1.158 3.854-2.006.541-.389 1.048-.821 1.599-1.194.66-.452 1.375-.813 2.089-1.173.699-.356 1.396-.71 2.095-1.063 1.355-.686 2.711-1.371 4.065-2.058.845-.427 1.69-.853 2.541-1.275.134-.065.274-.136.365-.255.082-.103.116-.234.185-.342.208-.344.647-.448 1.031-.58 1.503-.519 2.573-1.851 3.998-2.565.955-.478 2.036-.657 3.105-.726.69-.044 1.398-.043 2.053.18 1.36.463 2.008 2.022 2.092 3.353.002.039.003.081.007.12m-184.67 47.533c.343 0 .685.002 1.027.005 2.862.028 5.705-.226 8.572-.237.323-.001 2.481-.021 2.802-.008.334.013.74-.217 1.073-.226.602-.016 1.217.192 1.816.123 1.137-.131 2.16-.499 3.305-.497.277.001.56.046.827-.031.293-.085.532-.306.791-.474.877-.568 2.757-.621 3.245-1.589.322-.638.373-1.322.063-1.971-.311-.65-.444-1.492-.716-2.161-.291-.715-.981-1.387-1.244-2.114-.426-1.178-1.841-2.087-2.687-2.966-.366-.38-.753-.774-1.243-.923-.423-.129-.859-.053-1.29-.06-.439-.008-.849-.148-1.284-.2-1.71-.205-1.516.118-3.23-.009-.822-.061-2.747.21-3.555.029-2.07-.462-4.22-.645-6.324-.962-1.585-.238-3.136-.642-4.709-.943-1.537-.293-3.147-.223-4.655-.583-1.492-.355-2.886-1.182-3.964-2.349-.611-.66-1.391-1.216-1.558-2.128-.111-.599-.045-1.252.219-1.795.465-.957 2.593-1.734 3.469-1.859 1.098-.155 3.176-1.759 4.08-2.311.712-.436 2.134-.722 2.719-1.352.479-.515 1.856-1.357 2.348-1.857.816-.829 1.989-.557 2.877-1.294.464-.386 1.069-.329 1.601-.596.693-.348 1.45-.507 2.15-.169.701.338 1.081.358 1.604.962.441.509.61.697.804 1.36.124.426.142.875.249 1.305.111.445.418.809.505 1.264.109.572.069 1.082.256 1.648.463 1.401 1.758 2.317 3.019 1.601.348-.197 1.068-.177 1.445-.275 1.032-.266 2.679-.383 3.734-.518.469-.06.943.021 1.412-.029.475-.05.811-.307 1.234-.506.977-.458 1.854-1.037 2.711-1.742.719-.59 1.217-1.669 1.335-2.635.145-1.201.738-2.179.838-3.385.146-1.772.357-3.522.457-5.299.063-1.115-.066-.945-.336-2.026-.193-.773-.604-1.179-1.04-1.827-.482-.719-1.168-1.245-1.841-1.756-.564-.429-1.128-.859-1.692-1.287-1.708-1.299-3.301-1.94-5.497-2.063-2.498-.14-4.977.439-7.391 1.096-3.148.858-6.257 1.857-9.319 2.982-3.117 1.146-6.184 2.42-9.25 3.695-1.212.504-2.423 1.006-3.635 1.51-2.368.985-4.736 1.969-7.094 2.977-1.179.504-2.355 1.015-3.527 1.533-.534.236-1.1.443-1.586.766-.424.281-.648.61-1.221.644-2.434.148-2.897 2.365-5.197 3.551-.61.315-1.081.871-1.489 1.451-1.225 1.74-2.565 3.753-2.494 5.993.08 2.502-.237 5.088.867 7.402 1.146 2.402 2.506 4.859 4.759 6.4.562.384 1.167.701 1.773 1.015 2.209 1.143 4.448 2.248 6.804 3.046 3.477 1.177 7.145 1.666 10.785 2.147 1.705.226 3.414.452 5.133.493 2.116.051 4.24.011 6.36.014"/></g></svg>
