<?xml version="1.0" encoding="utf-8"?>
<!-- Generator: Adobe Illustrator 24.1.2, SVG Export Plug-In . SVG Version: 6.00 Build 0)  -->
<svg version="1.1" id="Layer_1" xmlns="http://www.w3.org/2000/svg" xmlns:xlink="http://www.w3.org/1999/xlink" x="0px" y="0px"
	 viewBox="0 0 351.1 104" style="enable-background:new 0 0 351.1 104;" xml:space="preserve">
<path d="M112.4,5.9l-4.1-1.8L92.8,56.3l-15.6-52L73,5.9V2.2h-5.3v59.4H73V9l15.8,53.3l3.9-1.6l3.9,1.8l15.7-53.3v52.4h5.3V2.2h-5.3
	V5.9z M45.7,9l7.8,28.1H39.2L37,39.9L45.7,9z M66.5,60.1l-7.9-25.6l-1.8-6.1l-7.7-27h-6.7l-7.7,27l-1.8,6.1l-7.8,25.6l5,2.1l5.7-19
	h19.7l5.9,19L66.5,60.1z M9.7,1.7H4.3v59.8h5.3V1.7z"/>
<rect y="56.2" width="14.3" height="5.3"/>
<rect y="1.4" width="14.3" height="5.3"/>
<path d="M244.6,60h-24l-3.7,4.6l14.6-51.8L244.6,60z M266.3,98.4l-13.3-42.9l-3-10.2L237.1,0h-11.2L213,45.4l-3,10.2l-13,43l8.4,3.6
	l9.6-31.9h33l9.9,31.9L266.3,98.4z"/>
<polygon points="318.8,91.9 318.8,9.3 325.8,9.3 325.8,0.4 302.1,0.4 302.1,9.3 309.8,9.3 309.8,91.9 302.1,91.9 302.1,100.8 
	325.8,100.8 325.8,91.9 "/>
<polygon points="268.8,85.7 268.8,96.5 274.8,104 283.8,104 290.2,96.5 290.2,85.7 283.8,78.4 274.8,78.4 "/>
<polygon points="329.7,85.7 329.7,96.5 335.7,104 344.7,104 351.1,96.5 351.1,85.7 344.7,78.4 335.7,78.4 "/>
</svg>
