<?xml version="1.0" encoding="utf-8"?>
<!-- Generator: Adobe Illustrator 24.1.2, SVG Export Plug-In . SVG Version: 6.00 Build 0)  -->
<svg version="1.1" id="Layer_1" xmlns="http://www.w3.org/2000/svg" xmlns:xlink="http://www.w3.org/1999/xlink" x="0px" y="0px"
	 viewBox="0 0 542.1 113.4" style="enable-background:new 0 0 542.1 113.4;" xml:space="preserve">
<g>
	<path d="M82.9,0L63.7,44.6L44.2,0L29,62.9h9.6L47,25.8l16.7,39.6l16.7-39.6l8.2,37.1h9.6L82.9,0L82.9,0z M212.7,32.3v7.8h16
		c-1.7,10-8.7,16.3-19.4,16.3c-12.9,0-21.5-10.4-21.5-24.4c0-12.8,8.9-22.7,21.7-22.7c7.7,0,13.4,3.2,19.1,10.6l7.1-5.5
		C228.9,5.4,220.2,1,209.3,1c-7,0-13,2.2-18.6,6.3c-8.1,6-12.6,15-12.6,25.4c0,8.8,3.3,17.1,9.3,23.1c5.9,6,12.5,8.9,21.8,8.9
		c8.9,0,15.7-3,21.2-9c5.3-5.6,7.9-12.4,8.8-23.4H212.7L212.7,32.3z M348.7,2.8H340v40.9L295,1.6v61.3h8.7v-41l45,42.2V2.8
		L348.7,2.8z M483.2,62.9l-18.1-26.5c8.4-2.2,13-8,13-16.5c0-6.1-2.7-11.4-7.6-14.3c-3.9-2.4-7.1-2.8-18.4-2.8h-10.4v60h8.7V37.2
		h4.6l17.2,25.7H483.2L483.2,62.9z M450.4,29.2V10.6h7.3c4.1,0,6.6,0.6,8.3,2.1c1.9,1.7,3.1,4.6,3.1,7.5c0,3.6-1.9,6.6-5.2,8
		c-1.7,0.7-4,0.9-9.4,0.9H450.4L450.4,29.2z M269.2,2.8h-8.8v60h8.8V2.8L269.2,2.8z M8.7,2.8H0v60h8.7V2.8L8.7,2.8z M542.1,2.8H533
		l-15.5,24.8L501.8,2.8h-9.6L513,36.8v26.1h8.7V35.7L542.1,2.8L542.1,2.8z M157.4,62.9h9.6l-29-62.3l-29,62.3h9.6l6.2-14.2h26.2
		L157.4,62.9L157.4,62.9z M138.1,19.1l9.6,21.8h-19.3L138.1,19.1L138.1,19.1z M414.4,62.9h9.6L395,0.6l-29,62.3h9.6l6.2-14.2h26.2
		L414.4,62.9L414.4,62.9z M395,19.1l9.6,21.8h-19.3L395,19.1L395,19.1z M124.4,89.2c-4.4,0-8,3.5-8,8c0,4.5,3.6,8,8,8
		c4.5,0,8.1-3.5,8.1-8C132.5,92.7,128.9,89.2,124.4,89.2L124.4,89.2L124.4,89.2z M124.4,91.9c2.9,0,5.2,2.4,5.2,5.3
		c0,2.8-2.3,5.1-5.2,5.1c-2.8,0-5-2.3-5-5.1C119.4,94.3,121.6,91.9,124.4,91.9L124.4,91.9L124.4,91.9z M145.1,102.5
		c-3.1,0-4.8-2.6-4.8-5.4c0-2.7,1.8-5.3,4.8-5.3c3.1,0,4.9,2.4,4.9,5.3C150,100.1,148.2,102.5,145.1,102.5L145.1,102.5L145.1,102.5z
		 M140.5,89.7h-2.9v23.7h2.9v-11h0.1c1.1,1.7,2.9,2.9,5.1,2.9c4.6,0,7.1-3.8,7.1-8.2c0-4.1-2.7-7.8-7-7.8c-2.3,0-4.1,1.1-5.2,2.9
		h-0.1V89.7L140.5,89.7z M172.1,97.7v-0.5c0-4.5-2.2-8-7-8c-4.8,0-7.3,3.5-7.3,8.1c0,4.4,2.8,7.9,7.3,7.9c3,0,5.6-1.5,7-4.1
		l-2.4-1.4c-1.1,1.8-2.3,2.8-4.6,2.8c-2.7,0-4.4-2.3-4.4-4.8H172.1L172.1,97.7z M160.8,95.4c0.4-2.1,2.1-3.7,4.3-3.7
		c2.3,0,3.8,1.4,4.1,3.7H160.8L160.8,95.4z M180.7,89.7h-2.9v15h2.9v-6.8c0-2.8,0-6,3.7-6c3,0,3.4,1.8,3.4,4.3v8.5h2.7v-8.9
		c0-3.7-0.9-6.5-5.2-6.5c-1.8,0-3.6,0.8-4.5,2.5h-0.1V89.7L180.7,89.7z M215.1,89.7h-3v15h3v-7.3c0-2.4,0.2-5.5,3.3-5.5
		c2.7,0,2.8,2.9,2.8,4.9v7.9h2.9v-7.3c0-2.4,0.2-5.5,3.3-5.5c2.5,0,2.8,2.4,2.8,4.4v8.4h2.8v-8.9c0-3.4-1-6.5-4.9-6.5
		c-1.9,0-3.7,1-4.7,2.6c-0.9-1.7-2.3-2.6-4.3-2.6c-1.7,0-3.2,1-4,2.4V89.7L215.1,89.7z M246.6,102.5c-3.1,0-4.8-2.6-4.8-5.4
		c0-2.7,1.8-5.3,4.8-5.3c3.1,0,4.9,2.4,4.9,5.3C251.5,100.1,249.7,102.5,246.6,102.5L246.6,102.5L246.6,102.5z M254.2,89.7h-2.8v2.4
		h-0.1c-1.2-1.8-3-2.9-5.2-2.9c-4.4,0-7.1,3.7-7.1,7.8c0,4.4,2.6,8.2,7.1,8.2c2.2,0,4-1.2,5.2-2.9h0.1v2.3h2.8V89.7L254.2,89.7z
		 M274.6,80.5v24.1h2.9v-6.8c0-2.8,0-6,3.7-6c3,0,3.3,1.8,3.3,4.3v8.5h2.9v-8.9c0-3.7-1.1-6.5-5.4-6.5c-1.7,0-3.5,0.8-4.5,2.5V80.5
		H274.6L274.6,80.5z M308.4,97.7v-0.5c0-4.5-2.3-8-7.1-8s-7.2,3.5-7.2,8.1c0,4.4,2.7,7.9,7.3,7.9c2.9,0,5.6-1.5,7-4.1l-2.4-1.4
		c-1.1,1.8-2.3,2.8-4.6,2.8c-2.7,0-4.4-2.3-4.5-4.8H308.4L308.4,97.7z M297,95.4c0.3-2.1,2-3.7,4.2-3.7c2.4,0,3.9,1.4,4.2,3.7H297
		L297,95.4z M318.2,89.7h-2.9v15h2.9v-7.3c0-2.4,0.2-5.5,3.3-5.5c2.6,0,2.7,2.9,2.7,4.9v7.9h2.9v-7.3c0-2.4,0.3-5.5,3.3-5.5
		c2.6,0,2.9,2.4,2.9,4.4v8.4h2.8v-8.9c0-3.4-1-6.5-4.9-6.5c-1.9,0-3.7,1-4.7,2.6c-1-1.7-2.4-2.6-4.3-2.6c-1.7,0-3.1,1-4,2.4V89.7
		L318.2,89.7z M349.7,102.5c-3.1,0-4.8-2.6-4.8-5.4c0-2.7,1.8-5.3,4.8-5.3c3.1,0,4.9,2.4,4.9,5.3
		C354.7,100.1,352.9,102.5,349.7,102.5L349.7,102.5L349.7,102.5z M357.4,89.7h-2.9v2.4c-1.2-1.8-3-2.9-5.2-2.9
		c-4.4,0-7.1,3.7-7.1,7.8c0,4.4,2.6,8.2,7.1,8.2c2.2,0,4-1.2,5.2-2.9v2.3h2.9V89.7L357.4,89.7z M380.7,89.7h-2.8v15h2.8V89.7
		L380.7,89.7z M379.4,80.6c-1.2,0-2,1-2,2.1c0,1.1,0.8,1.9,2,1.9c1,0,2-0.8,2-1.9C381.4,81.6,380.4,80.6,379.4,80.6L379.4,80.6
		L379.4,80.6z M401.2,92.5c-0.6-1-2.6-3.3-6-3.3c-4.6,0-8.2,3.4-8.2,8.1c0,4.5,3.6,7.9,8,7.9c3.3,0,5.1-1.8,6-3.1l-2-1.5
		c-0.9,1-1.8,1.9-3.9,1.9c-3.2,0-5.3-2.3-5.3-5.4c0-2.7,2.2-5.3,5.1-5.3c1.7,0,3.1,0.8,4.2,2.1L401.2,92.5L401.2,92.5z M414.5,91.8
		c-0.8-1.7-2.3-2.6-4.1-2.6c-2.5,0-4.4,1.8-4.4,4.4c0,2,1.2,2.8,2.8,3.7l2.9,1.5c0.6,0.5,1,0.9,1,1.7c0,1.3-1,2-2.2,2
		c-1.4,0-2.2-0.7-2.7-1.9l-2.6,1.2c0.9,2.1,3.1,3.4,5.3,3.4c2.7,0,5.2-2.1,5.2-5c0-2.3-1.7-3.5-3.5-4.3c-1.8-0.7-3.5-1.4-3.5-2.6
		c0-0.9,0.8-1.5,1.5-1.5c0.9,0,1.6,0.5,2,1.2L414.5,91.8L414.5,91.8z M265.3,92.3h2.8v-2.6h-2.8v-5.8h-3v5.8h-1.6v2.6h1.6v12.4h3
		V92.3L265.3,92.3z M368.7,92.3h3v-2.6h-3v-5.8h-2.8v5.8h-1.6v2.6h1.6v12.4h2.8V92.3L368.7,92.3z"/>
</g>
</svg>
