<?xml version="1.0" encoding="utf-8"?>
<!-- Generator: Adobe Illustrator 24.1.2, SVG Export Plug-In . SVG Version: 6.00 Build 0)  -->
<svg version="1.1" id="Layer_1" xmlns="http://www.w3.org/2000/svg" xmlns:xlink="http://www.w3.org/1999/xlink" x="0px" y="0px"
	 viewBox="0 0 724 118" style="enable-background:new 0 0 724 118;" xml:space="preserve">
<style type="text/css">
	.st0{fill:#FFFFFF;}
	.st1{fill:none;stroke:#000000;stroke-width:6;}
	.st2{fill:none;stroke:#000000;stroke-width:3;}
	.st3{fill:none;stroke:#000000;stroke-width:9;}
	.st4{fill:none;stroke:#000000;stroke-width:12;}
	.st5{font-family:'OCRAStd';}
	.st6{font-size:47.8906px;}
</style>
<desc></desc>
<rect x="16" y="-3.3" class="st0" width="270" height="124.5"/>
<line class="st1" x1="19" y1="14" x2="19" y2="104"/>
<line class="st2" x1="26.5" y1="14" x2="26.5" y2="104"/>
<line class="st3" x1="38.5" y1="14" x2="38.5" y2="104"/>
<line class="st2" x1="50.5" y1="14" x2="50.5" y2="104"/>
<line class="st1" x1="58" y1="14" x2="58" y2="104"/>
<line class="st3" x1="71.5" y1="14" x2="71.5" y2="104"/>
<line class="st2" x1="83.5" y1="14" x2="83.5" y2="104"/>
<line class="st2" x1="95.5" y1="14" x2="95.5" y2="104"/>
<line class="st1" x1="103" y1="14" x2="103" y2="104"/>
<line class="st3" x1="119.5" y1="14" x2="119.5" y2="104"/>
<line class="st2" x1="134.5" y1="14" x2="134.5" y2="104"/>
<line class="st1" x1="142" y1="14" x2="142" y2="104"/>
<line class="st1" x1="151" y1="14" x2="151" y2="104"/>
<line class="st2" x1="167.5" y1="14" x2="167.5" y2="104"/>
<line class="st2" x1="173.5" y1="14" x2="173.5" y2="104"/>
<line class="st1" x1="184" y1="14" x2="184" y2="104"/>
<line class="st4" x1="196" y1="14" x2="196" y2="104"/>
<line class="st1" x1="208" y1="14" x2="208" y2="104"/>
<line class="st2" x1="215.5" y1="14" x2="215.5" y2="104"/>
<line class="st4" x1="229" y1="14" x2="229" y2="104"/>
<line class="st2" x1="242.5" y1="14" x2="242.5" y2="104"/>
<line class="st1" x1="250" y1="14" x2="250" y2="104"/>
<line class="st3" x1="266.5" y1="14" x2="266.5" y2="104"/>
<line class="st2" x1="275.5" y1="14" x2="275.5" y2="104"/>
<line class="st1" x1="283" y1="14" x2="283" y2="104"/>
<text transform="matrix(1 0 0 1 354.1943 73.3196)" class="st5 st6">1234567890</text>
</svg>
